# xmcd CD database file
#
# Track frame offsets:
#	150
#	20500
#	35429
#	54261
#	74083
#	88556
#	106899
#	118880
#
# Disc length: 1900 seconds
#
# Revision: 6
# Processed by: cddbd v1.5.2PL0 Copyright (c) Steve Scherf et al.
# Submitted via: CDex 1.70beta3
#
DISCID=68076a08
DTITLE=やくしまるえつこ と d.v.d - Blu-Day
DYEAR=2010
DGENRE=Rock
TTITLE0=ファイナルダーリン
TTITLE1=DoReMiソファー
TTITLE2=ALPS
TTITLE3=時計ちっく
TTITLE4=いただきMt.Blanc
TTITLE5=冠婚葬祭 with you
TTITLE6=勝手にアイザック
TTITLE7=アラビアンリップ
EXTD=YEAR: 2010
EXTT0=
EXTT1=
EXTT2=
EXTT3=
EXTT4=
EXTT5=
EXTT6=
EXTT7=
PLAYORDER=
